<?xml version="1.0" standalone="no" ?> 
<!DOCTYPE svg PUBLIC "-//W3C//DTD SVG 1.1//EN" "http://www.w3.org/Graphics/SVG/1.1/DTD/svg11.dtd"> 
<svg width="100%" height="100%" version="1.1" xmlns="http://www.w3.org/2000/svg" xmlns:xlink="http://www.w3.org/1999/xlink" shape-rendering="geometricPrecision"><defs><style> /*<![CDATA[*/ .m0{fill:#000;} .m1{fill:#fff;} .c1{fill:#e2e3ea;} .c2{fill:#a4abc5;} .c3{fill:#e0e0e0;} .c4{fill:#717896;} .bg{width:calc(100% - 4px);height:calc(100% - 4px);} .cw{x:4px;width:calc(100% - 8px);} .mh{y:4px;height:calc(100% - 8px);} /*]]>*/ </style><linearGradient id="gr" x1="0" x2="0" y1="0" y2="1"><stop offset="0%" stop-color="#fdfdfd" /><stop offset="100%" stop-color="#e0e0e0" /></linearGradient><rect id="mc" class="m1" width="4" height="4" x="0" y="0" /><mask id="m-clt-1"><use href="#mc" /><circle class="m0" cx="4" cy="4" r="2.5" /></mask><mask id="m-clt-2"><use href="#mc" /><circle class="m0" cx="4" cy="4" r="1.5" /></mask><mask id="m-clt-3"><use href="#mc" /><circle class="m0" cx="4" cy="4" r="1" /></mask><mask id="m-clb-1"><use href="#mc" /><circle class="m0" cx="4" cy="0" r="2.5" /></mask><mask id="m-clb-2"><use href="#mc" /><ellipse class="m0" cx="4" cy="0" rx="4" ry="3" /></mask><mask id="m-clb-3"><use href="#mc" /><circle class="m0" cx="4" cy="0" r="1.5" /></mask><mask id="m-clb-4"><use href="#mc" /><ellipse class="m0" cx="4" cy="0" rx="3" ry="2" /></mask><mask id="m-clb-5"><use href="#mc" /><circle class="m0" cx="4" cy="0" r="1" /></mask><mask id="m-clb-6"><use href="#mc" /><ellipse class="m0" cx="4" cy="0" rx="2" ry="1" /></mask><mask id="m-crt-1"><use href="#mc" /><circle class="m0" cx="0" cy="4" r="2.5" /></mask><mask id="m-crt-2"><use href="#mc" /><ellipse class="m0" cx="0" cy="4" rx="3" ry="4" /></mask><mask id="m-crt-3"><use href="#mc" /><circle class="m0" cx="0" cy="4" r="1.5" /></mask><mask id="m-crt-4"><use href="#mc" /><ellipse class="m0" cx="0" cy="4" rx="2" ry="3" /></mask><mask id="m-crt-5"><use href="#mc" /><circle class="m0" cx="0" cy="4" r="1" /></mask><mask id="m-crt-6"><use href="#mc" /><ellipse class="m0" cx="0" cy="4" rx="1" ry="2" /></mask><mask id="m-crb-1"><use href="#mc" /><circle class="m0" cx="0" cy="0" r="2.5" /></mask><mask id="m-crb-2"><use href="#mc" /><circle class="m0" cx="0" cy="0" r="1.5" /></mask><mask id="m-crb-3"><use href="#mc" /><circle class="m0" cx="0" cy="0" r="1" /></mask><symbol id="s-clt"><circle mask="url(#m-clt-1)" cx="4" cy="4" r="4" class="c1" /><circle mask="url(#m-clt-2)" cx="4" cy="4" r="3" class="c2" /><circle mask="url(#m-clt-3)" cx="4" cy="4" r="2" class="m1" /></symbol><symbol id="s-clb"><circle mask="url(#m-clb-1)" cx="4" cy="0" r="4" class="c1" /><circle mask="url(#m-clb-2)" cx="4" cy="0" r="4" class="m1" /><circle mask="url(#m-clb-3)" cx="4" cy="0" r="3" class="c2" /><circle mask="url(#m-clb-4)" cx="4" cy="0" r="3" class="c4" /><circle mask="url(#m-clb-5)" cx="4" cy="0" r="2" class="m1" /><circle mask="url(#m-clb-6)" cx="4" cy="0" r="2" class="c3" /></symbol><symbol id="s-crt"><circle mask="url(#m-crt-1)" cx="0" cy="4" r="4" class="c1" /><circle mask="url(#m-crt-2)" cx="0" cy="4" r="4" class="m1" /><circle mask="url(#m-crt-3)" cx="0" cy="4" r="3" class="c2" /><circle mask="url(#m-crt-4)" cx="0" cy="4" r="3" class="c4" /><circle mask="url(#m-crt-5)" cx="0" cy="4" r="2" class="m1" /><circle mask="url(#m-crt-6)" cx="0" cy="4" r="2" class="c3" /></symbol><symbol id="s-crb"><circle mask="url(#m-crb-1)" cx="0" cy="0" r="4" class="m1" /><circle mask="url(#m-crb-2)" cx="0" cy="0" r="3" class="c4" /><circle mask="url(#m-crb-3)" cx="0" cy="0" r="2" class="c3" /></symbol></defs><rect class="bg" fill="url(#gr)" width="100%" height="100%" transform="translate(2 2)" /><rect class="cw c1" width="100%" height="1" /><rect class="cw c2" y="1" width="100%" height="1" /><rect class="cw m1" y="2" width="100%" height="1" /><rect class="cw c3" y="100%" width="100%" height="1" transform="translate(0 -3)" /><rect class="cw c4" y="100%" width="100%" height="1" transform="translate(0 -2)" /><rect class="cw m1" y="100%" width="100%" height="1" transform="translate(0 -1)" /><rect class="mh c1" height="100%" width="1" /><rect class="mh c2" x="1" height="100%" width="1" /><rect class="mh m1" x="2" height="100%" width="1" /><rect class="mh c3" x="100%" height="100%" width="1" transform="translate(-3 0)" /><rect class="mh c4" x="100%" height="100%" width="1" transform="translate(-2 0)" /><rect class="mh m1" x="100%" height="100%" width="1" transform="translate(-1 0)" /><use href="#s-clt" x="0" y="0" transform="translate(0 0)" /><use href="#s-clb" x="0" y="100%" transform="translate(0 -4)" /><use href="#s-crt" x="100%" y="0" transform="translate(-4 0)" /><use href="#s-crb" x="100%" y="100%" transform="translate(-4 -4)" /></svg>