<?xml version="1.0" standalone="no"?> 
<!DOCTYPE svg PUBLIC "-//W3C//DTD SVG 1.1//EN" "http://www.w3.org/Graphics/SVG/1.1/DTD/svg11.dtd"> 
<svg width="100%" height="100%" version="1.1" xmlns="http://www.w3.org/2000/svg" xmlns:xlink="http://www.w3.org/1999/xlink"><defs><style> /*<![CDATA[*/ .m1{fill:#ffffff;} .m0{fill:#000000;} .c1{fill:#0035aa;} .c2{fill:#6b9eff;} .bg{width:calc(100% - 4px);height:calc(100% - 4px);} .cw{x:4px;width:calc(100% - 8px);} .mh{y:4px;height:calc(100% - 8px);} /*]]>*/ </style><linearGradient id="gr" x1="0" x2="0" y1="0" y2="1"><stop offset="0%" stop-color="#e3e9ff" /><stop offset="100%" stop-color="#abbcff" /></linearGradient><rect id="m-clt" class="m1" width="4" height="4" x="0" y="0" /><rect id="m-clb" class="m1" width="4" height="4" x="0" y="0" /><rect id="m-crt" class="m1" width="4" height="4" x="0" y="0" /><rect id="m-crb" class="m1" width="4" height="4" x="0" y="0" /><mask id="m-clt-1"><use xlink:href="#m-clt" /><circle class="m0" cx="4" cy="4" r="2.5" /></mask><mask id="m-clt-2"><use xlink:href="#m-clt" /><circle class="m0" cx="4" cy="4" r="1.5" /></mask><mask id="m-clt-3"><use xlink:href="#m-clt" /><circle class="m0" cx="4" cy="4" r="1" /></mask><mask id="m-clb-1"><use xlink:href="#m-clb" /><circle class="m0" cx="4" cy="0" r="2.5" /></mask><mask id="m-clb-2"><use xlink:href="#m-clb" /><circle class="m0" cx="4" cy="0" r="1.5" /></mask><mask id="m-clb-3"><use xlink:href="#m-clb" /><circle class="m0" cx="4" cy="0" r="1" /></mask><mask id="m-clb-4"><use xlink:href="#m-clb" /><ellipse class="m0" cx="4" cy="0" rx="2" ry="1" /></mask><mask id="m-crt-1"><use xlink:href="#m-crt" /><circle class="m0" cx="0" cy="4" r="2.5" /></mask><mask id="m-crt-2"><use xlink:href="#m-crt" /><circle class="m0" cx="0" cy="4" r="1.5" /></mask><mask id="m-crt-3"><use xlink:href="#m-crt" /><circle class="m0" cx="0" cy="4" r="1" /></mask><mask id="m-crt-4"><use xlink:href="#m-crt" /><ellipse class="m0" cx="0" cy="4" rx="2" ry="1" /></mask><mask id="m-crb-1"><use xlink:href="#m-crb" /><circle class="m0" cx="0" cy="0" r="2.5" /></mask><mask id="m-crb-2"><use xlink:href="#m-crb" /><circle class="m0" cx="0" cy="0" r="1.5" /></mask><mask id="m-crb-3"><use xlink:href="#m-crb" /><circle class="m0" cx="0" cy="0" r="1" /></mask><symbol id="s-clt"><circle mask="url(#m-clt-1)" cx="4" cy="4" r="4" class="c1" /><circle mask="url(#m-clt-2)" cx="4" cy="4" r="3" class="m0" /><circle mask="url(#m-clt-3)" cx="4" cy="4" r="2" class="m1" /></symbol><symbol id="s-clb"><circle mask="url(#m-clb-1)" cx="4" cy="0" r="4" class="c1" /><circle mask="url(#m-clb-2)" cx="4" cy="0" r="3" class="m0" /><circle mask="url(#m-clb-3)" cx="4" cy="0" r="2" class="m1" /><circle mask="url(#m-clb-4)" cx="4" cy="0" r="2" class="c2" /></symbol><symbol id="s-crt"><circle mask="url(#m-crt-1)" cx="0" cy="4" r="4" class="c1" /><circle mask="url(#m-crt-2)" cx="0" cy="4" r="3" class="m0" /><circle mask="url(#m-crt-3)" cx="0" cy="4" r="2" class="c2" /><circle mask="url(#m-crt-4)" cx="0" cy="4" r="2" class="m1" /></symbol><symbol id="s-crb"><circle mask="url(#m-crb-1)" cx="0" cy="0" r="4" class="c1" /><circle mask="url(#m-crb-2)" cx="0" cy="0" r="3" class="m0" /><circle mask="url(#m-crb-3)" cx="0" cy="0" r="2" class="c2" /></symbol></defs><rect class="bg" fill="url(#gr)" width="100%" height="100%" transform="translate(2 2)" /><rect class="cw c1" width="100%" height="1" /><rect class="cw m0" y="1" width="100%" height="1" /><rect class="cw m1" y="2" width="100%" height="1" /><rect class="cw c2" y="100%" width="100%" height="1" transform="translate(0 -3)" /><rect class="cw m0" y="100%" width="100%" height="1" transform="translate(0 -2)" /><rect class="cw c1" y="100%" width="100%" height="1" transform="translate(0 -1)" /><rect class="mh c1" height="100%" width="1" /><rect class="mh m0" x="1" height="100%" width="1" /><rect class="mh m1" x="2" height="100%" width="1" /><rect class="mh c2" x="100%" height="100%" width="1" transform="translate(-3 0)" /><rect class="mh m0" x="100%" height="100%" width="1" transform="translate(-2 0)" /><rect class="mh c1" x="100%" height="100%" width="1" transform="translate(-1 0)" /><use href="#s-clt" x="0" y="0" transform="translate(0 0)" /><use href="#s-clb" x="0" y="100%" transform="translate(0 -4)" /><use href="#s-crt" x="100%" y="0" transform="translate(-4 0)" /><use href="#s-crb" x="100%" y="100%" transform="translate(-4 -4)" /></svg>